<svg width="722" height="752" viewBox="0 0 541.5 564" xmlns="http://www.w3.org/2000/svg" xmlns:xlink="http://www.w3.org/1999/xlink">
<g id="graph0" class="graph" transform="translate(82.72999572753906,329) scale(1)">
<title>G</title>
<polygon fill="white" stroke="none" points="-4,4 -4,-98 380.04,-98 380.04,4 -4,4"/>
<g id="clust1" class="cluster">
<title>cluster_Elementary_1a</title>
<polygon fill="#c9c5c5" stroke="black" stroke-dasharray="1,5" points="8,-8 8,-86 368.04,-86 368.04,-8 8,-8"/>
<text text-anchor="middle" x="188.02" y="-69.4" font-family="Times,serif" font-size="14.00">a1</text>
</g>
<!-- Data -->
<g id="Data" class="node instance">
<title>Data</title>
<polygon fill="white" stroke="green" points="70,-53 16,-53 16,-17 70,-17 70,-53"/>
<text text-anchor="middle" x="43" y="-30.8" font-family="Times,serif" font-size="14.00">Data</text>
</g>
<!-- ML_Training -->
<g id="ML_Training" class="node">
<title>ML_Training</title>
<path fill="white" stroke="#0000ee" d="M118,-17C118,-17 186.21,-17 186.21,-17 192.21,-17 198.21,-23 198.21,-29 198.21,-29 198.21,-41 198.21,-41 198.21,-47 192.21,-53 186.21,-53 186.21,-53 118,-53 118,-53 112,-53 106,-47 106,-41 106,-41 106,-29 106,-29 106,-23 112,-17 118,-17"/>
<text text-anchor="middle" x="152.1" y="-30.9" font-family="Times,serif" font-size="14.00">ML_Training</text>
</g>
<!-- Data&#45;&gt;ML_Training -->
<g id="edge1" class="edge">
<title>Data-&gt;ML_Training</title>
<path fill="none" stroke="black" d="M70.48,-35C77.8,-35 86.04,-35 94.39,-35"/>
<polygon fill="black" stroke="black" points="94.24,-38.5 104.24,-35 94.24,-31.5 94.24,-38.5"/>
</g>
<!-- ML_model -->
<g id="ML_model" class="node">
<title>ML_model</title>
<polygon fill="white" stroke="blue" points="360.04,-35 328.58,-53 265.67,-53 234.21,-35 265.67,-17 328.58,-17 360.04,-35"/>
<text text-anchor="middle" x="297.12" y="-30.8" font-family="Times,serif" font-size="14.00">ML_model</text>
</g>
<!-- ML_Training&#45;&gt;ML_model -->
<g id="edge2" class="edge">
<title>ML_Training-&gt;ML_model</title>
<path fill="none" stroke="black" d="M198.36,-35C205.92,-35 213.94,-35 222.01,-35"/>
<polygon fill="black" stroke="black" points="221.88,-38.5 231.88,-35 221.88,-31.5 221.88,-38.5"/>
</g>
</g>
</svg>
