<svg width="722" height="752" viewBox="0 0 541.5 564" xmlns="http://www.w3.org/2000/svg" xmlns:xlink="http://www.w3.org/1999/xlink">
<g id="graph0" class="graph" transform="translate(82.72999572753906,329) scale(1)">
<title>G</title>
<polygon fill="white" stroke="none" points="-4,4 -4,-98 385.61,-98 385.61,4 -4,4"/>
<g id="clust1" class="cluster">
<title style="">cluster_Elementary_2a</title>
<polygon fill="#c9c5c5" stroke="black" stroke-dasharray="1,5" points="8,-8 8,-86 373.61,-86 373.61,-8 8,-8" style=""/>
<text text-anchor="middle" x="190.8" y="-69.4" font-family="Times,serif" font-size="14.00" style="">a2</text>
</g>
<!-- Data -->
<g id="Symbol" class="node instance">
<title>Symbol</title>
<polygon fill="white" stroke="red" points="75.57,-53 16,-53 16,-17 75.57,-17 75.57,-53"/>
<text text-anchor="middle" x="45.78" y="-30.8" font-family="Times,serif" font-size="14.00">Symbol</text>
</g>
<!-- ML_Training -->
<g id="ML_Training" class="node">
<title>ML_Training</title>
<path fill="white" stroke="#0000ee" d="M123.57,-17C123.57,-17 191.77,-17 191.77,-17 197.77,-17 203.77,-23 203.77,-29 203.77,-29 203.77,-41 203.77,-41 203.77,-47 197.77,-53 191.77,-53 191.77,-53 123.57,-53 123.57,-53 117.57,-53 111.57,-47 111.57,-41 111.57,-41 111.57,-29 111.57,-29 111.57,-23 117.57,-17 123.57,-17"/>
<text text-anchor="middle" x="157.67" y="-30.9" font-family="Times,serif" font-size="14.00">ML_Training</text>
</g>
<!-- Data&#45;&gt;ML_Training -->
<g id="edge1" class="edge">
<title>Symbol-&gt;ML_Training</title>
<path fill="none" stroke="black" d="M75.94,-35C83.37,-35 91.62,-35 99.92,-35"/>
<polygon fill="black" stroke="black" points="99.69,-38.5 109.69,-35 99.69,-31.5 99.69,-38.5"/>
</g>
<!-- ML_model -->
<g id="ML_model" class="node">
<title>ML_model</title>
<polygon fill="white" stroke="blue" points="365.61,-35 334.15,-53 271.23,-53 239.77,-35 271.23,-17 334.15,-17 365.61,-35"/>
<text text-anchor="middle" x="302.69" y="-30.8" font-family="Times,serif" font-size="14.00">ML_model</text>
</g>
<!-- ML_Training&#45;&gt;ML_model -->
<g id="edge2" class="edge">
<title>ML_Training-&gt;ML_model</title>
<path fill="none" stroke="black" d="M203.92,-35C211.49,-35 219.51,-35 227.57,-35"/>
<polygon fill="black" stroke="black" points="227.45,-38.5 237.45,-35 227.45,-31.5 227.45,-38.5"/>
</g>
</g>
</svg>
