<svg width="722" height="752" viewBox="0 0 541.5 564" xmlns="http://www.w3.org/2000/svg" xmlns:xlink="http://www.w3.org/1999/xlink">
<g id="graph0" class="graph" transform="translate(-14.214996337890625, 322.5)">
<title>G</title>
<polygon fill="white" stroke="none" points="-4,4 -4,-98 324.65,-98 324.65,4 -4,4"/>
<g id="clust1" class="cluster">
<title style="">cluster_Elementary_1d</title>
<polygon fill="#c9c5c5" stroke="black" stroke-dasharray="1,5" points="8,-8 8,-86 312.65,-86 312.65,-8 8,-8" style=""/>
<text text-anchor="middle" x="160.32" y="-69.4" font-family="Times,serif" font-size="14.00" style="">1d</text>
</g>
<!-- Actor -->
<g id="Symbol" class="node instance">
<title style="">Symbol</title>
<polygon fill="white" stroke="red" points="75.57,-53 16,-53 16,-17 75.57,-17 75.57,-53" style=""/>
<text text-anchor="middle" x="45.78" y="-30.8" font-family="Times,serif" font-size="14.00" style="">Symbol</text>
</g>
<!-- Knowledge_Engineering -->
<g id="Transformation" class="node">
<title style="">Transformation</title>
<path fill="white" stroke="coral" d="M123.57,-17C123.57,-17 202.65,-17 202.65,-17 208.65,-17 214.65,-23 214.65,-29 214.65,-29 214.65,-41 214.65,-41 214.65,-47 208.65,-53 202.65,-53 202.65,-53 123.57,-53 123.57,-53 117.57,-53 111.57,-47 111.57,-41 111.57,-41 111.57,-29 111.57,-29 111.57,-23 117.57,-17 123.57,-17" style=""/>
<text text-anchor="middle" x="163.11" y="-30.9" font-family="Times,serif" font-size="14.00" style="">Transformation</text>
</g>
<!-- Actor&#45;&gt;Knowledge_Engineering -->
<g id="edge1" class="edge">
<title style="">Symbol-&gt;Transformation</title>
<path fill="none" stroke="black" d="M75.88,-35C83.32,-35 91.59,-35 100,-35" style=""/>
<polygon fill="black" stroke="black" points="99.96,-38.5 109.96,-35 99.96,-31.5 99.96,-38.5" style=""/>
</g>
<!-- Symbolic_model -->
<g id="Data" class="node instance">
<title style="">Data</title>
<polygon fill="white" stroke="green" points="304.65,-53 250.65,-53 250.65,-17 304.65,-17 304.65,-53" style=""/>
<text text-anchor="middle" x="277.65" y="-30.8" font-family="Times,serif" font-size="14.00" style="">Data</text>
</g>
<!-- Knowledge_Engineering&#45;&gt;Symbolic_model -->
<g id="edge2" class="edge">
<title style="">Transformation-&gt;Data</title>
<path fill="none" stroke="black" d="M215.11,-35C223.12,-35 231.28,-35 238.93,-35" style=""/>
<polygon fill="black" stroke="black" points="238.91,-38.5 248.91,-35 238.91,-31.5 238.91,-38.5" style=""/>
</g>
</g>
</svg>
